<?xml version="1.0" encoding="iso-8859-1"?>
<!-- Generator: Adobe Illustrator 16.0.0, SVG Export Plug-In . SVG Version: 6.00 Build 0)  -->
<!DOCTYPE svg PUBLIC "-//W3C//DTD SVG 1.1//EN" "http://www.w3.org/Graphics/SVG/1.1/DTD/svg11.dtd">
<svg version="1.1" id="Capa_1" xmlns="http://www.w3.org/2000/svg" xmlns:xlink="http://www.w3.org/1999/xlink" x="0px" y="0px"
	 width="42.919px" height="42.918px" viewBox="0 0 42.919 42.918" style="enable-background:new 0 0 42.919 42.918;"
	 xml:space="preserve">
<g>
	<g>
		<path d="M42.051,15.903c-4.915,0-9.828,0-14.742,0c-0.111,0-0.224,0-0.334,0c-1.446-4.454-2.895-8.908-4.341-13.362
			c-0.089-0.272-0.177-0.544-0.265-0.815c-0.025-0.292-0.212-0.503-0.456-0.626c-0.041-0.022-0.081-0.042-0.124-0.057
			c-0.052-0.018-0.103-0.028-0.157-0.038c-0.057-0.01-0.111-0.019-0.17-0.018c-0.06,0-0.117,0.008-0.176,0.019
			c-0.053,0.009-0.102,0.02-0.151,0.037c-0.044,0.016-0.085,0.035-0.127,0.058c-0.244,0.123-0.431,0.334-0.455,0.626
			c-1.506,4.633-3.01,9.267-4.517,13.899c-0.03,0.093-0.06,0.185-0.09,0.278c-4.697,0-9.394,0-14.091,0c-0.329,0-0.657,0-0.986,0
			c-0.959,0-1.144,1.177-0.454,1.678c3.976,2.889,7.952,5.777,11.929,8.667c0.065,0.049,0.131,0.096,0.196,0.143
			c-1.456,4.48-2.912,8.964-4.369,13.443c-0.102,0.311-0.203,0.625-0.305,0.938c-0.231,0.714,0.678,1.484,1.322,1.017
			c3.977-2.889,7.952-5.776,11.929-8.665c0.114-0.084,0.229-0.166,0.344-0.25c3.824,2.778,7.649,5.557,11.475,8.336
			c0.267,0.192,0.53,0.387,0.799,0.579c0.645,0.47,1.554-0.303,1.322-1.017c-1.521-4.674-3.039-9.35-4.559-14.021
			c-0.039-0.119-0.078-0.238-0.116-0.359c3.775-2.742,7.552-5.484,11.325-8.228c0.268-0.193,0.532-0.387,0.798-0.58
			C43.194,17.08,43.01,15.903,42.051,15.903z M32.479,38.66c-3.256-2.364-6.512-4.729-9.767-7.095
			c-0.266-0.193-0.531-0.389-0.798-0.58c-0.233-0.172-0.675-0.172-0.908,0c-3.522,2.559-7.042,5.115-10.564,7.675
			c1.238-3.812,2.477-7.623,3.716-11.435c0.102-0.312,0.203-0.627,0.305-0.938c0.133-0.409-0.095-0.784-0.414-1.019
			c-3.473-2.522-6.945-5.044-10.418-7.567c3.994,0,7.987,0,11.981,0c0.329,0,0.657,0,0.986,0c0.414,0,0.743-0.277,0.868-0.661
			c1.332-4.097,2.662-8.193,3.993-12.29c1.229,3.784,2.458,7.568,3.688,11.351c0.103,0.313,0.203,0.626,0.306,0.938
			c0.125,0.384,0.454,0.661,0.868,0.661c4.321,0,8.644,0,12.966,0c-3.206,2.329-6.411,4.658-9.618,6.988
			c-0.266,0.193-0.532,0.387-0.798,0.58c-0.319,0.232-0.548,0.605-0.414,1.018C29.799,30.412,31.139,34.536,32.479,38.66z"/>
		<path d="M32.854,20.06c0.267-0.194,0.194-0.651-0.179-0.651c-2.771,0-5.543,0-8.313,0c-0.851-2.618-1.701-5.234-2.55-7.85
			c-0.007-0.069-0.041-0.125-0.086-0.17c-0.003-0.003-0.006-0.006-0.008-0.008c-0.024-0.022-0.049-0.042-0.078-0.057
			c-0.019-0.01-0.036-0.019-0.057-0.025c-0.019-0.006-0.036-0.01-0.056-0.014c-0.022-0.003-0.044-0.007-0.067-0.007
			c-0.025,0-0.049,0.003-0.074,0.008c-0.017,0.003-0.032,0.006-0.049,0.012c-0.021,0.007-0.041,0.017-0.062,0.028
			c-0.026,0.015-0.05,0.032-0.071,0.052c-0.005,0.004-0.01,0.009-0.014,0.014c-0.033,0.035-0.058,0.076-0.071,0.125c0,0,0,0,0,0.001
			c-0.001,0.002-0.001,0.003-0.002,0.005c-0.003,0.012-0.01,0.021-0.011,0.034c-0.852,2.618-1.702,5.235-2.552,7.853
			c-2.772,0-5.542,0-8.313,0c-0.373,0-0.444,0.457-0.177,0.651c2.233,1.624,4.465,3.245,6.698,4.866
			c-0.857,2.644-1.716,5.283-2.575,7.926c-0.09,0.277,0.264,0.576,0.515,0.395c2.251-1.635,4.504-3.271,6.756-4.908
			c2.251,1.637,4.502,3.273,6.755,4.908c0.251,0.184,0.604-0.115,0.516-0.395c-0.858-2.643-1.718-5.283-2.574-7.926
			C28.386,23.303,30.619,21.682,32.854,20.06z M21.28,27.607c-2.029,1.474-4.06,2.948-6.09,4.425
			c0.773-2.382,1.547-4.764,2.32-7.145c0.052-0.158-0.037-0.305-0.161-0.395c-2.011-1.461-4.024-2.923-6.036-4.384
			c2.499,0,4.997,0,7.495,0c0.161,0,0.289-0.107,0.338-0.257c0.771-2.371,1.542-4.743,2.312-7.115
			c0.771,2.372,1.541,4.745,2.311,7.115c0.049,0.149,0.178,0.257,0.338,0.257c2.499,0,4.997,0,7.496,0
			c-2.013,1.462-4.024,2.924-6.037,4.384c-0.123,0.092-0.213,0.234-0.16,0.395c0.773,2.381,1.547,4.764,2.32,7.145
			c-2.03-1.477-4.061-2.951-6.091-4.425C21.543,27.54,21.374,27.54,21.28,27.607z"/>
		<polygon points="25.955,22.12 22.521,22.12 21.46,18.855 20.399,22.12 16.965,22.12 19.744,24.137 18.683,27.406 21.46,25.385 
			24.237,27.406 23.177,24.137 		"/>
	</g>
</g>
<g>
</g>
<g>
</g>
<g>
</g>
<g>
</g>
<g>
</g>
<g>
</g>
<g>
</g>
<g>
</g>
<g>
</g>
<g>
</g>
<g>
</g>
<g>
</g>
<g>
</g>
<g>
</g>
<g>
</g>
</svg>
